<svg width="32" height="32" viewBox="0 0 32 32" fill="none" xmlns="http://www.w3.org/2000/svg">
<path opacity="0.1" fill-rule="evenodd" clip-rule="evenodd" d="M0 16C0 7.16344 7.16344 0 16 0C24.8366 0 32 7.16344 32 16C32 24.8366 24.8366 32 16 32C7.16344 32 0 24.8366 0 16Z" fill="white"/>
<path d="M24.3385 15.9974C24.3385 11.3974 20.6052 7.66406 16.0052 7.66406C11.4052 7.66406 7.67188 11.3974 7.67188 15.9974C7.67188 20.0307 10.5385 23.3891 14.3385 24.1641V18.4974H12.6719V15.9974H14.3385V13.9141C14.3385 12.3057 15.6469 10.9974 17.2552 10.9974H19.3385V13.4974H17.6719C17.2135 13.4974 16.8385 13.8724 16.8385 14.3307V15.9974H19.3385V18.4974H16.8385V24.2891C21.0469 23.8724 24.3385 20.3224 24.3385 15.9974Z" fill="white"/>
</svg>
