<svg width="32" height="32" viewBox="0 0 32 32" fill="none" xmlns="http://www.w3.org/2000/svg">
<path opacity="0.1" fill-rule="evenodd" clip-rule="evenodd" d="M0 16C0 7.16344 7.16344 0 16 0C24.8366 0 32 7.16344 32 16C32 24.8366 24.8366 32 16 32C7.16344 32 0 24.8366 0 16Z" fill="white"/>
<path fill-rule="evenodd" clip-rule="evenodd" d="M20.5383 10.25C20.7872 10.25 21.0146 10.3425 21.1879 10.495C21.3927 10.6752 21.5219 10.9393 21.5219 11.2336C21.5219 11.7768 21.0815 12.2172 20.5383 12.2172C20.1015 12.2172 19.7311 11.9324 19.6028 11.5384C19.5716 11.4424 19.5547 11.34 19.5547 11.2336C19.5547 10.6904 19.9951 10.25 20.5383 10.25ZM12.4297 7.38452C11.5071 7.42653 10.8766 7.57283 10.326 7.78707C9.75577 8.00831 9.27305 8.30512 8.79068 8.78671C8.30831 9.2683 8.01224 9.75176 7.79099 10.322C7.57674 10.8729 7.43044 11.503 7.38842 12.4256C7.34571 13.3497 7.33594 13.6451 7.33594 15.9987C7.33594 18.3523 7.34571 18.6477 7.38842 19.5718C7.43044 20.4945 7.57674 21.1245 7.79099 21.6754C8.01224 22.2453 8.30838 22.7293 8.79068 23.2107C9.27298 23.6921 9.75577 23.9885 10.326 24.2103C10.8776 24.4246 11.5071 24.5709 12.4297 24.6129C13.3543 24.6549 13.6493 24.6654 16.003 24.6654C18.3566 24.6654 18.6521 24.6556 19.5762 24.6129C20.4989 24.5709 21.129 24.4246 21.6799 24.2103C22.2498 23.9885 22.7329 23.6923 23.2152 23.2107C23.6976 22.7291 23.993 22.2453 24.2149 21.6754C24.4292 21.1245 24.5762 20.4944 24.6175 19.5718C24.6595 18.647 24.6693 18.3523 24.6693 15.9987C24.6693 13.6451 24.6595 13.3497 24.6175 12.4256C24.5755 11.5029 24.4292 10.8725 24.2149 10.322C23.993 9.75211 23.6968 9.26907 23.2152 8.78671C22.7336 8.30436 22.2498 8.00831 21.6806 7.78707C21.129 7.57283 20.4988 7.42584 19.5769 7.38452C18.6528 7.3425 18.3573 7.33203 16.0036 7.33203C13.65 7.33203 13.3543 7.34181 12.4297 7.38452ZM19.207 15.9967C19.207 17.7675 17.7714 19.2031 16.0006 19.2031C14.2298 19.2031 12.7943 17.7675 12.7943 15.9967C12.7943 14.2259 14.2298 12.7904 16.0006 12.7904C17.7714 12.7904 19.207 14.2259 19.207 15.9967ZM20.5403 15.9967C20.5403 18.5039 18.5078 20.5364 16.0006 20.5364C13.4934 20.5364 11.4609 18.5039 11.4609 15.9967C11.4609 13.4895 13.4934 11.457 16.0006 11.457C18.5078 11.457 20.5403 13.4895 20.5403 15.9967Z" fill="white"/>
</svg>
