<svg width="142" height="52" viewBox="0 0 142 52" fill="none" xmlns="http://www.w3.org/2000/svg">
<rect x="0.5" y="0.433594" width="141" height="51" rx="5" fill="white" fill-opacity="0.1"/>
<path d="M33.1227 31.5115C32.7996 32.2547 32.417 32.9388 31.9738 33.5678C31.3697 34.4253 30.8751 35.0188 30.4938 35.3484C29.9029 35.8894 29.2698 36.1664 28.5917 36.1822C28.105 36.1822 27.518 36.0443 26.8348 35.7646C26.1492 35.4862 25.5192 35.3484 24.9432 35.3484C24.3391 35.3484 23.6911 35.4862 22.9981 35.7646C22.304 36.0443 21.7449 36.1901 21.3174 36.2045C20.6672 36.2321 20.0191 35.9471 19.3723 35.3484C18.9594 34.9899 18.443 34.3754 17.8243 33.5048C17.1606 32.5751 16.6149 31.4971 16.1874 30.268C15.7295 28.9405 15.5 27.655 15.5 26.4104C15.5 24.9848 15.8095 23.7552 16.4293 22.7248C16.9164 21.8972 17.5645 21.2443 18.3756 20.765C19.1867 20.2858 20.0631 20.0415 21.0068 20.0259C21.5233 20.0259 22.2005 20.1849 23.042 20.4974C23.8812 20.811 24.4201 20.97 24.6563 20.97C24.8329 20.97 25.4315 20.7841 26.4463 20.4134C27.4059 20.0696 28.2158 19.9273 28.8793 19.9834C30.6772 20.1278 32.0279 20.8333 32.9262 22.1044C31.3183 23.0742 30.5229 24.4326 30.5387 26.1752C30.5532 27.5326 31.0479 28.6621 32.02 29.5589C32.4606 29.9752 32.9526 30.2969 33.5 30.5254C33.3813 30.8681 33.256 31.1964 33.1227 31.5115ZM28.9993 15.3592C28.9993 16.423 28.6089 17.4164 27.8306 18.3358C26.8915 19.4288 25.7555 20.0604 24.5236 19.9608C24.5079 19.8331 24.4988 19.6988 24.4988 19.5576C24.4988 18.5363 24.9454 17.4433 25.7386 16.5496C26.1346 16.0971 26.6382 15.7209 27.2489 15.4208C27.8583 15.1251 28.4348 14.9616 28.9769 14.9336C28.9927 15.0758 28.9993 15.2181 28.9993 15.3592V15.3592Z" fill="white"/>
<path d="M49.589 11.7556H52.031C53.021 11.7556 53.7837 12.0746 54.319 12.7126C54.8617 13.3506 55.133 14.3113 55.133 15.5946C55.133 16.8779 54.8617 17.8386 54.319 18.4766C53.7837 19.1146 53.021 19.4336 52.031 19.4336H49.589V11.7556ZM52.042 18.8506C52.7973 18.8506 53.384 18.6086 53.802 18.1246C54.22 17.6333 54.429 16.9586 54.429 16.1006V15.0886C54.429 14.2306 54.22 13.5596 53.802 13.0756C53.384 12.5843 52.7973 12.3386 52.042 12.3386H50.249V18.8506H52.042ZM58.7412 19.5656C58.3672 19.5656 58.0298 19.4996 57.7292 19.3676C57.4285 19.2356 57.1718 19.0449 56.9592 18.7956C56.7465 18.5389 56.5815 18.2273 56.4642 17.8606C56.3468 17.4939 56.2882 17.0796 56.2882 16.6176C56.2882 16.1556 56.3468 15.7449 56.4642 15.3856C56.5815 15.0189 56.7465 14.7109 56.9592 14.4616C57.1718 14.2049 57.4285 14.0106 57.7292 13.8786C58.0298 13.7393 58.3672 13.6696 58.7412 13.6696C59.1152 13.6696 59.4525 13.7393 59.7532 13.8786C60.0538 14.0106 60.3105 14.2049 60.5232 14.4616C60.7358 14.7109 60.9008 15.0189 61.0182 15.3856C61.1355 15.7449 61.1942 16.1556 61.1942 16.6176C61.1942 17.0796 61.1355 17.4939 61.0182 17.8606C60.9008 18.2273 60.7358 18.5389 60.5232 18.7956C60.3105 19.0449 60.0538 19.2356 59.7532 19.3676C59.4525 19.4996 59.1152 19.5656 58.7412 19.5656ZM58.7412 19.0046C59.2912 19.0046 59.7238 18.8323 60.0392 18.4876C60.3618 18.1429 60.5232 17.6369 60.5232 16.9696V16.2656C60.5232 15.6056 60.3618 15.1033 60.0392 14.7586C59.7238 14.4066 59.2912 14.2306 58.7412 14.2306C58.1912 14.2306 57.7548 14.4029 57.4322 14.7476C57.1168 15.0923 56.9592 15.5983 56.9592 16.2656V16.9696C56.9592 17.6296 57.1168 18.1356 57.4322 18.4876C57.7548 18.8323 58.1912 19.0046 58.7412 19.0046ZM61.9848 13.8016H62.6008L63.9538 18.8726H63.9758L65.4718 13.8016H66.0548L67.5618 18.8726H67.5838L68.9258 13.8016H69.5308L67.9468 19.4336H67.1768L65.7578 14.6926H65.7358L64.3278 19.4336H63.5688L61.9848 13.8016ZM70.8063 19.4336V13.8016H71.4333V14.6926H71.4663C71.5909 14.3993 71.7853 14.1573 72.0493 13.9666C72.3133 13.7686 72.6726 13.6696 73.1273 13.6696C73.7286 13.6696 74.1943 13.8566 74.5243 14.2306C74.8616 14.5973 75.0303 15.1253 75.0303 15.8146V19.4336H74.4033V15.9246C74.4033 15.3526 74.2786 14.9273 74.0293 14.6486C73.7873 14.3699 73.4316 14.2306 72.9623 14.2306C72.7643 14.2306 72.5736 14.2563 72.3903 14.3076C72.2069 14.3589 72.0419 14.4359 71.8953 14.5386C71.7559 14.6413 71.6423 14.7733 71.5543 14.9346C71.4736 15.0886 71.4333 15.2683 71.4333 15.4736V19.4336H70.8063ZM77.5875 19.4336C77.3602 19.4336 77.1879 19.3713 77.0705 19.2466C76.9532 19.1219 76.8945 18.9569 76.8945 18.7516V11.2936H77.5215V18.8836H78.3905V19.4336H77.5875ZM81.6869 19.5656C81.3129 19.5656 80.9756 19.4996 80.6749 19.3676C80.3742 19.2356 80.1176 19.0449 79.9049 18.7956C79.6922 18.5389 79.5272 18.2273 79.4099 17.8606C79.2926 17.4939 79.2339 17.0796 79.2339 16.6176C79.2339 16.1556 79.2926 15.7449 79.4099 15.3856C79.5272 15.0189 79.6922 14.7109 79.9049 14.4616C80.1176 14.2049 80.3742 14.0106 80.6749 13.8786C80.9756 13.7393 81.3129 13.6696 81.6869 13.6696C82.0609 13.6696 82.3982 13.7393 82.6989 13.8786C82.9996 14.0106 83.2562 14.2049 83.4689 14.4616C83.6816 14.7109 83.8466 15.0189 83.9639 15.3856C84.0812 15.7449 84.1399 16.1556 84.1399 16.6176C84.1399 17.0796 84.0812 17.4939 83.9639 17.8606C83.8466 18.2273 83.6816 18.5389 83.4689 18.7956C83.2562 19.0449 82.9996 19.2356 82.6989 19.3676C82.3982 19.4996 82.0609 19.5656 81.6869 19.5656ZM81.6869 19.0046C82.2369 19.0046 82.6696 18.8323 82.9849 18.4876C83.3076 18.1429 83.4689 17.6369 83.4689 16.9696V16.2656C83.4689 15.6056 83.3076 15.1033 82.9849 14.7586C82.6696 14.4066 82.2369 14.2306 81.6869 14.2306C81.1369 14.2306 80.7006 14.4029 80.3779 14.7476C80.0626 15.0923 79.9049 15.5983 79.9049 16.2656V16.9696C79.9049 17.6296 80.0626 18.1356 80.3779 18.4876C80.7006 18.8323 81.1369 19.0046 81.6869 19.0046ZM89.4948 19.4336C89.2528 19.4336 89.0768 19.3713 88.9668 19.2466C88.8568 19.1219 88.7944 18.9533 88.7798 18.7406V18.5426H88.7248C88.6001 18.8579 88.3948 19.1073 88.1088 19.2906C87.8228 19.4739 87.4598 19.5656 87.0198 19.5656C86.4258 19.5656 85.9674 19.4226 85.6448 19.1366C85.3221 18.8433 85.1608 18.4326 85.1608 17.9046C85.1608 17.4059 85.3368 17.0099 85.6888 16.7166C86.0481 16.4233 86.6348 16.2766 87.4488 16.2766H88.7468V15.6166C88.7468 14.6853 88.2664 14.2196 87.3058 14.2196C86.9318 14.2196 86.6201 14.3003 86.3708 14.4616C86.1214 14.6156 85.9198 14.8393 85.7658 15.1326L85.3698 14.8026C85.5238 14.4726 85.7584 14.2013 86.0738 13.9886C86.3964 13.7759 86.8144 13.6696 87.3278 13.6696C87.9878 13.6696 88.4938 13.8346 88.8458 14.1646C89.1978 14.4946 89.3738 14.9566 89.3738 15.5506V18.8836H90.1328V19.4336H89.4948ZM87.1078 19.0266C87.3351 19.0266 87.5478 18.9973 87.7458 18.9386C87.9438 18.8799 88.1161 18.7993 88.2628 18.6966C88.4168 18.5866 88.5341 18.4583 88.6148 18.3116C88.7028 18.1576 88.7468 17.9853 88.7468 17.7946V16.7496H87.4268C86.8621 16.7496 86.4514 16.8413 86.1948 17.0246C85.9454 17.2006 85.8208 17.4463 85.8208 17.7616V18.0256C85.8208 18.3556 85.9381 18.6049 86.1728 18.7736C86.4074 18.9423 86.7191 19.0266 87.1078 19.0266ZM94.9545 18.5316H94.9215C94.7749 18.8469 94.5585 19.0999 94.2725 19.2906C93.9939 19.4739 93.6382 19.5656 93.2055 19.5656C92.4795 19.5656 91.9112 19.3089 91.5005 18.7956C91.0899 18.2823 90.8845 17.5563 90.8845 16.6176C90.8845 15.6789 91.0899 14.9529 91.5005 14.4396C91.9112 13.9263 92.4795 13.6696 93.2055 13.6696C93.6382 13.6696 93.9975 13.7649 94.2835 13.9556C94.5695 14.1389 94.7822 14.3883 94.9215 14.7036H94.9545V11.2936H95.5815V19.4336H94.9545V18.5316ZM93.3485 19.0046C93.5685 19.0046 93.7739 18.9753 93.9645 18.9166C94.1625 18.8579 94.3349 18.7736 94.4815 18.6636C94.6282 18.5463 94.7419 18.4106 94.8225 18.2566C94.9105 18.0953 94.9545 17.9156 94.9545 17.7176V15.4846C94.9545 15.3013 94.9105 15.1326 94.8225 14.9786C94.7419 14.8246 94.6282 14.6926 94.4815 14.5826C94.3349 14.4726 94.1625 14.3883 93.9645 14.3296C93.7739 14.2636 93.5685 14.2306 93.3485 14.2306C92.7839 14.2306 92.3439 14.4103 92.0285 14.7696C91.7132 15.1289 91.5555 15.6129 91.5555 16.2216V17.0136C91.5555 17.6223 91.7132 18.1063 92.0285 18.4656C92.3439 18.8249 92.7839 19.0046 93.3485 19.0046ZM102.012 19.5656C101.638 19.5656 101.3 19.4996 101 19.3676C100.699 19.2356 100.442 19.0449 100.23 18.7956C100.017 18.5389 99.8519 18.2273 99.7346 17.8606C99.6172 17.4939 99.5586 17.0796 99.5586 16.6176C99.5586 16.1556 99.6172 15.7449 99.7346 15.3856C99.8519 15.0189 100.017 14.7109 100.23 14.4616C100.442 14.2049 100.699 14.0106 101 13.8786C101.3 13.7393 101.638 13.6696 102.012 13.6696C102.386 13.6696 102.723 13.7393 103.024 13.8786C103.324 14.0106 103.581 14.2049 103.794 14.4616C104.006 14.7109 104.171 15.0189 104.289 15.3856C104.406 15.7449 104.465 16.1556 104.465 16.6176C104.465 17.0796 104.406 17.4939 104.289 17.8606C104.171 18.2273 104.006 18.5389 103.794 18.7956C103.581 19.0449 103.324 19.2356 103.024 19.3676C102.723 19.4996 102.386 19.5656 102.012 19.5656ZM102.012 19.0046C102.562 19.0046 102.994 18.8323 103.31 18.4876C103.632 18.1429 103.794 17.6369 103.794 16.9696V16.2656C103.794 15.6056 103.632 15.1033 103.31 14.7586C102.994 14.4066 102.562 14.2306 102.012 14.2306C101.462 14.2306 101.025 14.4029 100.703 14.7476C100.387 15.0923 100.23 15.5983 100.23 16.2656V16.9696C100.23 17.6296 100.387 18.1356 100.703 18.4876C101.025 18.8323 101.462 19.0046 102.012 19.0046ZM105.947 19.4336V13.8016H106.574V14.6926H106.607C106.732 14.3993 106.926 14.1573 107.19 13.9666C107.454 13.7686 107.814 13.6696 108.268 13.6696C108.87 13.6696 109.335 13.8566 109.665 14.2306C110.003 14.5973 110.171 15.1253 110.171 15.8146V19.4336H109.544V15.9246C109.544 15.3526 109.42 14.9273 109.17 14.6486C108.928 14.3699 108.573 14.2306 108.103 14.2306C107.905 14.2306 107.715 14.2563 107.531 14.3076C107.348 14.3589 107.183 14.4359 107.036 14.5386C106.897 14.6413 106.783 14.7733 106.695 14.9346C106.615 15.0886 106.574 15.2683 106.574 15.4736V19.4336H105.947ZM115.493 19.4336C115.266 19.4336 115.094 19.3713 114.976 19.2466C114.859 19.1219 114.8 18.9533 114.8 18.7406V14.3516H113.821V13.8016H114.459C114.613 13.8016 114.716 13.7723 114.767 13.7136C114.826 13.6476 114.855 13.5339 114.855 13.3726V12.2286H115.427V13.8016H116.703V14.3516H115.427V18.8836H116.615V19.4336H115.493ZM118.1 11.2936H118.727V14.6926H118.76C118.885 14.3993 119.079 14.1573 119.343 13.9666C119.607 13.7686 119.966 13.6696 120.421 13.6696C121.022 13.6696 121.488 13.8566 121.818 14.2306C122.155 14.5973 122.324 15.1253 122.324 15.8146V19.4336H121.697V15.9246C121.697 15.3526 121.572 14.9273 121.323 14.6486C121.081 14.3699 120.725 14.2306 120.256 14.2306C120.058 14.2306 119.867 14.2563 119.684 14.3076C119.501 14.3589 119.336 14.4359 119.189 14.5386C119.05 14.6413 118.936 14.7733 118.848 14.9346C118.767 15.0886 118.727 15.2683 118.727 15.4736V19.4336H118.1V11.2936ZM126.201 19.5656C125.827 19.5656 125.486 19.4996 125.178 19.3676C124.877 19.2356 124.617 19.0449 124.397 18.7956C124.184 18.5389 124.019 18.2273 123.902 17.8606C123.792 17.4939 123.737 17.0796 123.737 16.6176C123.737 16.1556 123.792 15.7449 123.902 15.3856C124.019 15.0189 124.184 14.7109 124.397 14.4616C124.617 14.2049 124.877 14.0106 125.178 13.8786C125.479 13.7393 125.816 13.6696 126.19 13.6696C126.549 13.6696 126.876 13.7393 127.169 13.8786C127.462 14.0106 127.712 14.1976 127.917 14.4396C128.122 14.6816 128.28 14.9749 128.39 15.3196C128.507 15.6569 128.566 16.0309 128.566 16.4416V16.7386H124.397V17.0136C124.397 17.3069 124.437 17.5783 124.518 17.8276C124.606 18.0696 124.727 18.2786 124.881 18.4546C125.042 18.6306 125.237 18.7699 125.464 18.8726C125.691 18.9679 125.948 19.0156 126.234 19.0156C127.055 19.0156 127.624 18.6379 127.939 17.8826L128.401 18.1906C128.225 18.6086 127.946 18.9423 127.565 19.1916C127.191 19.4409 126.736 19.5656 126.201 19.5656ZM126.19 14.1976C125.919 14.1976 125.673 14.2489 125.453 14.3516C125.233 14.4469 125.042 14.5826 124.881 14.7586C124.727 14.9346 124.606 15.1473 124.518 15.3966C124.437 15.6386 124.397 15.9063 124.397 16.1996V16.2546H127.884V16.1666C127.884 15.8733 127.844 15.6056 127.763 15.3636C127.682 15.1143 127.565 14.9053 127.411 14.7366C127.264 14.5679 127.085 14.4359 126.872 14.3406C126.667 14.2453 126.439 14.1976 126.19 14.1976Z" fill="white"/>
<path d="M51.26 35.9856H56.02L56.068 36.6496H51.18L51.26 35.9856ZM52.012 40.1456C52.012 40.2309 51.98 40.3003 51.916 40.3536C51.852 40.4069 51.7533 40.4336 51.62 40.4336H49.14C49.0067 40.4336 48.9053 40.4096 48.836 40.3616C48.772 40.3083 48.74 40.2389 48.74 40.1536C48.74 40.0896 48.7587 40.0363 48.796 39.9936C48.8387 39.9456 48.916 39.9003 49.028 39.8576L49.34 39.7456C49.4947 39.6816 49.6093 39.5936 49.684 39.4816C49.764 39.3696 49.852 39.1643 49.948 38.8656L52.756 30.4496C52.82 30.2576 52.8333 30.1216 52.796 30.0416C52.764 29.9563 52.6547 29.8869 52.468 29.8336C52.3187 29.7963 52.2147 29.7536 52.156 29.7056C52.0973 29.6523 52.068 29.5856 52.068 29.5056C52.068 29.4203 52.1 29.3536 52.164 29.3056C52.2333 29.2576 52.3373 29.2336 52.476 29.2336H55.764C55.9027 29.2336 56.004 29.2576 56.068 29.3056C56.132 29.3536 56.164 29.4203 56.164 29.5056C56.164 29.5856 56.1347 29.6523 56.076 29.7056C56.0227 29.7536 55.9267 29.7963 55.788 29.8336C55.6387 29.8656 55.548 29.9163 55.516 29.9856C55.4893 30.0496 55.5 30.1563 55.548 30.3056L58.524 39.1056C58.5933 39.3243 58.676 39.4869 58.772 39.5936C58.8733 39.6949 59.02 39.7696 59.212 39.8176C59.356 39.8603 59.452 39.9056 59.5 39.9536C59.548 40.0016 59.572 40.0656 59.572 40.1456C59.572 40.2309 59.5373 40.3003 59.468 40.3536C59.404 40.4069 59.3053 40.4336 59.172 40.4336H55.996C55.8627 40.4336 55.7613 40.4069 55.692 40.3536C55.628 40.3003 55.596 40.2309 55.596 40.1456C55.596 40.0763 55.62 40.0176 55.668 39.9696C55.716 39.9216 55.7933 39.8843 55.9 39.8576L56.46 39.7696C56.5987 39.7376 56.6707 39.6789 56.676 39.5936C56.6813 39.5029 56.6493 39.3616 56.58 39.1696L53.524 29.9696L53.756 29.8576L50.788 38.7856C50.724 38.9776 50.692 39.1376 50.692 39.2656C50.6973 39.3883 50.7373 39.4896 50.812 39.5696C50.892 39.6443 51.0147 39.7083 51.18 39.7616L51.708 39.8576C51.8093 39.8896 51.884 39.9269 51.932 39.9696C51.9853 40.0123 52.012 40.0709 52.012 40.1456ZM62.715 33.2336V34.2096L62.779 34.3456V43.0736C62.779 43.2123 62.8057 43.3189 62.859 43.3936C62.9123 43.4683 62.9897 43.5163 63.091 43.5376L63.643 43.6256C63.739 43.6469 63.8083 43.6816 63.851 43.7296C63.899 43.7776 63.923 43.8363 63.923 43.9056C63.923 43.9803 63.8937 44.0416 63.835 44.0896C63.7763 44.1376 63.6857 44.1616 63.563 44.1616H60.483C60.3603 44.1616 60.2697 44.1376 60.211 44.0896C60.1577 44.0416 60.131 43.9803 60.131 43.9056C60.131 43.8363 60.1523 43.7776 60.195 43.7296C60.2377 43.6869 60.307 43.6523 60.403 43.6256L60.779 43.5456C60.8803 43.5189 60.9577 43.4683 61.011 43.3936C61.0643 43.3243 61.091 43.2176 61.091 43.0736V34.3616C61.091 34.2389 61.0723 34.1509 61.035 34.0976C60.9977 34.0443 60.931 34.0123 60.835 34.0016L60.291 33.9856C60.2057 33.9696 60.1417 33.9429 60.099 33.9056C60.0617 33.8683 60.043 33.8203 60.043 33.7616C60.043 33.6923 60.0643 33.6363 60.107 33.5936C60.155 33.5509 60.2377 33.5083 60.355 33.4656L61.627 32.9936C61.787 32.9296 61.9177 32.8843 62.019 32.8576C62.1257 32.8309 62.219 32.8176 62.299 32.8176C62.4377 32.8176 62.5417 32.8549 62.611 32.9296C62.6803 33.0043 62.715 33.1056 62.715 33.2336ZM62.387 35.1296L62.131 34.7136C62.5417 34.0949 63.0163 33.6149 63.555 33.2736C64.099 32.9323 64.6883 32.7616 65.323 32.7616C65.9523 32.7616 66.5123 32.9216 67.003 33.2416C67.499 33.5616 67.8883 34.0043 68.171 34.5696C68.4537 35.1349 68.595 35.7829 68.595 36.5136C68.595 37.3563 68.4297 38.0843 68.099 38.6976C67.7683 39.3109 67.3203 39.7856 66.755 40.1216C66.195 40.4523 65.571 40.6176 64.883 40.6176C64.2537 40.6176 63.6883 40.4629 63.187 40.1536C62.691 39.8443 62.2937 39.4016 61.995 38.8256L62.387 38.4336C62.659 38.9136 62.9843 39.2789 63.363 39.5296C63.747 39.7749 64.1577 39.8976 64.595 39.8976C65.0217 39.8976 65.403 39.7829 65.739 39.5536C66.075 39.3189 66.339 38.9643 66.531 38.4896C66.7283 38.0149 66.827 37.4229 66.827 36.7136C66.827 36.0309 66.7337 35.4629 66.547 35.0096C66.3603 34.5563 66.1043 34.2149 65.779 33.9856C65.4537 33.7509 65.083 33.6336 64.667 33.6336C64.2403 33.6336 63.8323 33.7589 63.443 34.0096C63.059 34.2549 62.707 34.6283 62.387 35.1296ZM72.0825 33.2336V34.2096L72.1465 34.3456V43.0736C72.1465 43.2123 72.1732 43.3189 72.2265 43.3936C72.2798 43.4683 72.3572 43.5163 72.4585 43.5376L73.0105 43.6256C73.1065 43.6469 73.1758 43.6816 73.2185 43.7296C73.2665 43.7776 73.2905 43.8363 73.2905 43.9056C73.2905 43.9803 73.2612 44.0416 73.2025 44.0896C73.1438 44.1376 73.0532 44.1616 72.9305 44.1616H69.8505C69.7278 44.1616 69.6372 44.1376 69.5785 44.0896C69.5252 44.0416 69.4985 43.9803 69.4985 43.9056C69.4985 43.8363 69.5198 43.7776 69.5625 43.7296C69.6052 43.6869 69.6745 43.6523 69.7705 43.6256L70.1465 43.5456C70.2478 43.5189 70.3252 43.4683 70.3785 43.3936C70.4318 43.3243 70.4585 43.2176 70.4585 43.0736V34.3616C70.4585 34.2389 70.4398 34.1509 70.4025 34.0976C70.3652 34.0443 70.2985 34.0123 70.2025 34.0016L69.6585 33.9856C69.5732 33.9696 69.5092 33.9429 69.4665 33.9056C69.4292 33.8683 69.4105 33.8203 69.4105 33.7616C69.4105 33.6923 69.4318 33.6363 69.4745 33.5936C69.5225 33.5509 69.6052 33.5083 69.7225 33.4656L70.9945 32.9936C71.1545 32.9296 71.2852 32.8843 71.3865 32.8576C71.4932 32.8309 71.5865 32.8176 71.6665 32.8176C71.8052 32.8176 71.9092 32.8549 71.9785 32.9296C72.0478 33.0043 72.0825 33.1056 72.0825 33.2336ZM71.7545 35.1296L71.4985 34.7136C71.9092 34.0949 72.3838 33.6149 72.9225 33.2736C73.4665 32.9323 74.0558 32.7616 74.6905 32.7616C75.3198 32.7616 75.8798 32.9216 76.3705 33.2416C76.8665 33.5616 77.2558 34.0043 77.5385 34.5696C77.8212 35.1349 77.9625 35.7829 77.9625 36.5136C77.9625 37.3563 77.7972 38.0843 77.4665 38.6976C77.1358 39.3109 76.6878 39.7856 76.1225 40.1216C75.5625 40.4523 74.9385 40.6176 74.2505 40.6176C73.6212 40.6176 73.0558 40.4629 72.5545 40.1536C72.0585 39.8443 71.6612 39.4016 71.3625 38.8256L71.7545 38.4336C72.0265 38.9136 72.3518 39.2789 72.7305 39.5296C73.1145 39.7749 73.5252 39.8976 73.9625 39.8976C74.3892 39.8976 74.7705 39.7829 75.1065 39.5536C75.4425 39.3189 75.7065 38.9643 75.8985 38.4896C76.0958 38.0149 76.1945 37.4229 76.1945 36.7136C76.1945 36.0309 76.1012 35.4629 75.9145 35.0096C75.7278 34.5563 75.4718 34.2149 75.1465 33.9856C74.8212 33.7509 74.4505 33.6336 74.0345 33.6336C73.6078 33.6336 73.1998 33.7589 72.8105 34.0096C72.4265 34.2549 72.0745 34.6283 71.7545 35.1296ZM86.7401 40.6816C86.2708 40.6816 85.8655 40.6229 85.5241 40.5056C85.1881 40.3883 84.9161 40.2736 84.7081 40.1616C84.5001 40.0443 84.3535 39.9856 84.2681 39.9856C84.1775 39.9856 84.1055 40.0203 84.0521 40.0896C83.9988 40.1589 83.9508 40.2416 83.9081 40.3376C83.8655 40.4336 83.8175 40.5163 83.7641 40.5856C83.7108 40.6549 83.6361 40.6896 83.5401 40.6896C83.4548 40.6896 83.3828 40.6629 83.3241 40.6096C83.2708 40.5563 83.2335 40.4683 83.2121 40.3456L82.6201 37.8016C82.5988 37.7056 82.6068 37.6229 82.6441 37.5536C82.6868 37.4843 82.7561 37.4336 82.8521 37.4016C82.9535 37.3643 83.0415 37.3669 83.1161 37.4096C83.1908 37.4469 83.2548 37.5216 83.3081 37.6336C83.5961 38.2149 83.9161 38.6816 84.2681 39.0336C84.6255 39.3803 85.0068 39.6336 85.4121 39.7936C85.8175 39.9536 86.2281 40.0336 86.6441 40.0336C87.2415 40.0336 87.7081 39.8736 88.0441 39.5536C88.3801 39.2283 88.5481 38.8016 88.5481 38.2736C88.5535 37.9483 88.4815 37.6469 88.3321 37.3696C88.1828 37.0869 87.9001 36.8149 87.4841 36.5536C87.0735 36.2923 86.4681 36.0283 85.6681 35.7616C84.8735 35.4843 84.2335 35.1749 83.7481 34.8336C83.2681 34.4923 82.9188 34.1003 82.7001 33.6576C82.4868 33.2149 82.3801 32.7109 82.3801 32.1456C82.3801 31.5216 82.5268 30.9749 82.8201 30.5056C83.1135 30.0363 83.5215 29.6736 84.0441 29.4176C84.5721 29.1563 85.1828 29.0256 85.8761 29.0256C86.3828 29.0256 86.7935 29.0816 87.1081 29.1936C87.4281 29.3003 87.6841 29.4096 87.8761 29.5216C88.0735 29.6336 88.2335 29.6896 88.3561 29.6896C88.4681 29.6896 88.5455 29.6336 88.5881 29.5216C88.6308 29.4096 88.6761 29.2976 88.7241 29.1856C88.7775 29.0683 88.8708 29.0096 89.0041 29.0096C89.0948 29.0096 89.1695 29.0389 89.2281 29.0976C89.2868 29.1563 89.3375 29.2629 89.3801 29.4176L90.1561 32.0336C90.1881 32.1403 90.1855 32.2389 90.1481 32.3296C90.1108 32.4149 90.0441 32.4763 89.9481 32.5136C89.8468 32.5456 89.7561 32.5429 89.6761 32.5056C89.6015 32.4629 89.5375 32.3883 89.4841 32.2816C89.1641 31.6363 88.8175 31.1243 88.4441 30.7456C88.0761 30.3616 87.6895 30.0869 87.2841 29.9216C86.8788 29.7563 86.4601 29.6736 86.0281 29.6736C85.4201 29.6736 84.9321 29.8496 84.5641 30.2016C84.2015 30.5483 84.0201 31.0096 84.0201 31.5856C84.0201 31.9216 84.0948 32.2363 84.2441 32.5296C84.3988 32.8176 84.6788 33.0976 85.0841 33.3696C85.4895 33.6416 86.0681 33.9189 86.8201 34.2016C87.6521 34.5056 88.3081 34.8283 88.7881 35.1696C89.2735 35.5056 89.6201 35.8816 89.8281 36.2976C90.0361 36.7136 90.1401 37.1829 90.1401 37.7056C90.1348 38.2496 89.9988 38.7483 89.7321 39.2016C89.4708 39.6549 89.0868 40.0149 88.5801 40.2816C88.0788 40.5483 87.4655 40.6816 86.7401 40.6816ZM91.778 33.5776L91.346 33.4736C91.218 33.4363 91.1273 33.3936 91.074 33.3456C91.026 33.2976 91.002 33.2416 91.002 33.1776C91.002 33.0976 91.0313 33.0363 91.09 32.9936C91.1487 32.9456 91.226 32.9216 91.322 32.9216H91.834C91.978 32.9216 92.0927 32.9003 92.178 32.8576C92.2633 32.8149 92.338 32.7349 92.402 32.6176L93.058 31.4416C93.1327 31.3189 93.2073 31.2309 93.282 31.1776C93.362 31.1243 93.4447 31.0976 93.53 31.0976C93.6207 31.0976 93.69 31.1269 93.738 31.1856C93.7913 31.2389 93.818 31.3163 93.818 31.4176V38.4656C93.818 38.8336 93.8927 39.1136 94.042 39.3056C94.1967 39.4976 94.41 39.5936 94.682 39.5936C94.874 39.5936 95.0233 39.5616 95.13 39.4976C95.242 39.4336 95.3273 39.3589 95.386 39.2736C95.45 39.1829 95.5087 39.1056 95.562 39.0416C95.6207 38.9723 95.6927 38.9349 95.778 38.9296C95.842 38.9296 95.8927 38.9509 95.93 38.9936C95.9673 39.0363 95.986 39.1056 95.986 39.2016C95.9807 39.4309 95.8953 39.6523 95.73 39.8656C95.5647 40.0736 95.338 40.2443 95.05 40.3776C94.762 40.5056 94.4313 40.5696 94.058 40.5696C93.4713 40.5696 93.0047 40.4176 92.658 40.1136C92.3113 39.8096 92.138 39.3483 92.138 38.7296V34.0336C92.138 33.9056 92.1113 33.8096 92.058 33.7456C92.0047 33.6763 91.9113 33.6203 91.778 33.5776ZM93.066 33.5456L93.074 32.9216H95.586C95.6927 32.9216 95.7727 32.9429 95.826 32.9856C95.8847 33.0283 95.914 33.0896 95.914 33.1696C95.914 33.2763 95.858 33.3669 95.746 33.4416C95.6393 33.5109 95.466 33.5456 95.226 33.5456H93.066ZM100.807 32.7696C101.591 32.7696 102.282 32.9376 102.879 33.2736C103.476 33.6043 103.943 34.0656 104.279 34.6576C104.615 35.2496 104.783 35.9323 104.783 36.7056C104.783 37.4523 104.612 38.1216 104.271 38.7136C103.93 39.3056 103.455 39.7723 102.847 40.1136C102.244 40.4496 101.546 40.6176 100.751 40.6176C99.9722 40.6176 99.2842 40.4496 98.6869 40.1136C98.0895 39.7776 97.6229 39.3136 97.2869 38.7216C96.9509 38.1296 96.7829 37.4496 96.7829 36.6816C96.7829 35.9243 96.9535 35.2523 97.2949 34.6656C97.6362 34.0736 98.1082 33.6096 98.7109 33.2736C99.3135 32.9376 100.012 32.7696 100.807 32.7696ZM101.367 39.9376C101.81 39.8789 102.17 39.7003 102.447 39.4016C102.73 39.0976 102.916 38.6923 103.007 38.1856C103.103 37.6736 103.092 37.0709 102.975 36.3776C102.863 35.6843 102.674 35.1083 102.407 34.6496C102.146 34.1856 101.826 33.8523 101.447 33.6496C101.068 33.4469 100.652 33.3776 100.199 33.4416C99.7509 33.5056 99.3882 33.6896 99.1109 33.9936C98.8335 34.2923 98.6469 34.6976 98.5509 35.2096C98.4602 35.7163 98.4709 36.3136 98.5829 37.0016C98.7002 37.6949 98.8895 38.2736 99.1509 38.7376C99.4175 39.1963 99.7402 39.5296 100.119 39.7376C100.498 39.9403 100.914 40.0069 101.367 39.9376ZM108.207 36.2656C108.207 35.5083 108.319 34.8709 108.543 34.3536C108.767 33.8309 109.058 33.4363 109.415 33.1696C109.773 32.8976 110.154 32.7616 110.559 32.7616C111.039 32.7616 111.41 32.8949 111.671 33.1616C111.938 33.4283 112.071 33.7936 112.071 34.2576C112.071 34.6256 111.994 34.9056 111.839 35.0976C111.685 35.2843 111.482 35.3776 111.231 35.3776C110.981 35.3776 110.786 35.3083 110.647 35.1696C110.514 35.0256 110.447 34.8309 110.447 34.5856V34.3136C110.442 34.1323 110.397 33.9989 110.311 33.9136C110.231 33.8229 110.093 33.7776 109.895 33.7776C109.666 33.7776 109.442 33.8683 109.223 34.0496C109.01 34.2309 108.834 34.5056 108.695 34.8736C108.557 35.2416 108.487 35.7056 108.487 36.2656H108.207ZM108.399 33.2336L108.487 35.1216V39.3376C108.487 39.4709 108.517 39.5723 108.575 39.6416C108.639 39.7109 108.743 39.7563 108.887 39.7776L109.607 39.8816C109.719 39.8976 109.802 39.9296 109.855 39.9776C109.909 40.0203 109.935 40.0843 109.935 40.1696C109.935 40.2496 109.903 40.3136 109.839 40.3616C109.781 40.4096 109.69 40.4336 109.567 40.4336H106.183C106.066 40.4336 105.978 40.4096 105.919 40.3616C105.861 40.3136 105.831 40.2496 105.831 40.1696C105.831 40.1056 105.853 40.0523 105.895 40.0096C105.943 39.9616 106.013 39.9243 106.103 39.8976L106.487 39.8176C106.589 39.7856 106.666 39.7349 106.719 39.6656C106.773 39.5963 106.799 39.4896 106.799 39.3456V34.3696C106.799 34.2523 106.778 34.1669 106.735 34.1136C106.698 34.0603 106.634 34.0283 106.543 34.0176L105.999 33.9936C105.909 33.9829 105.845 33.9589 105.807 33.9216C105.77 33.8843 105.751 33.8336 105.751 33.7696C105.751 33.7003 105.773 33.6443 105.815 33.6016C105.863 33.5536 105.946 33.5109 106.063 33.4736L107.375 33.0096C107.583 32.9349 107.738 32.8869 107.839 32.8656C107.941 32.8389 108.021 32.8256 108.079 32.8256C108.175 32.8256 108.247 32.8576 108.295 32.9216C108.349 32.9803 108.383 33.0843 108.399 33.2336ZM119.674 35.7616C119.674 36.0069 119.602 36.1936 119.458 36.3216C119.32 36.4443 119.112 36.5056 118.834 36.5056H113.722V36.0016H117.562C117.824 36.0016 117.954 35.8869 117.954 35.6576C117.954 34.9429 117.8 34.3856 117.49 33.9856C117.186 33.5856 116.776 33.3856 116.258 33.3856C115.853 33.3856 115.496 33.5003 115.186 33.7296C114.882 33.9589 114.642 34.2869 114.466 34.7136C114.296 35.1349 114.21 35.6336 114.21 36.2096C114.21 37.2709 114.464 38.0763 114.97 38.6256C115.477 39.1749 116.141 39.4496 116.962 39.4496C117.49 39.4496 117.949 39.3296 118.338 39.0896C118.728 38.8496 119.002 38.5323 119.162 38.1376C119.226 38.0523 119.28 37.9936 119.322 37.9616C119.37 37.9243 119.421 37.9056 119.474 37.9056C119.549 37.9056 119.602 37.9376 119.634 38.0016C119.666 38.0603 119.68 38.1323 119.674 38.2176C119.642 38.6603 119.482 39.0629 119.194 39.4256C118.912 39.7883 118.533 40.0789 118.058 40.2976C117.584 40.5109 117.045 40.6176 116.442 40.6176C115.69 40.6176 115.029 40.4629 114.458 40.1536C113.893 39.8389 113.45 39.3963 113.13 38.8256C112.81 38.2549 112.65 37.5883 112.65 36.8256C112.65 36.0416 112.805 35.3456 113.114 34.7376C113.424 34.1243 113.864 33.6416 114.434 33.2896C115.01 32.9376 115.693 32.7616 116.482 32.7616C117.133 32.7616 117.698 32.8896 118.178 33.1456C118.658 33.4016 119.026 33.7563 119.282 34.2096C119.544 34.6576 119.674 35.1749 119.674 35.7616Z" fill="white"/>
</svg>
