<svg width="32" height="32" viewBox="0 0 32 32" fill="none" xmlns="http://www.w3.org/2000/svg">
<path opacity="0.1" fill-rule="evenodd" clip-rule="evenodd" d="M0 16C0 7.16344 7.16344 0 16 0C24.8366 0 32 7.16344 32 16C32 24.8366 24.8366 32 16 32C7.16344 32 0 24.8366 0 16Z" fill="white"/>
<path d="M25.8008 12C25.8008 12 25.6055 10.6211 25.0039 10.0156C24.2422 9.21875 23.3906 9.21484 23 9.16797C20.2031 8.96484 16.0039 8.96484 16.0039 8.96484H15.9961C15.9961 8.96484 11.7969 8.96484 9 9.16797C8.60938 9.21484 7.75781 9.21875 6.99609 10.0156C6.39453 10.6211 6.20312 12 6.20312 12C6.20312 12 6 13.6211 6 15.2383V16.7539C6 18.3711 6.19922 19.9922 6.19922 19.9922C6.19922 19.9922 6.39453 21.3711 6.99219 21.9766C7.75391 22.7734 8.75391 22.7461 9.19922 22.832C10.8008 22.9844 16 23.0313 16 23.0313C16 23.0313 20.2031 23.0234 23 22.8242C23.3906 22.7773 24.2422 22.7734 25.0039 21.9766C25.6055 21.3711 25.8008 19.9922 25.8008 19.9922C25.8008 19.9922 26 18.375 26 16.7539V15.2383C26 13.6211 25.8008 12 25.8008 12ZM13.9336 18.5938V12.9727L19.3359 15.793L13.9336 18.5938Z" fill="white"/>
</svg>
