<svg xmlns="http://www.w3.org/2000/svg" viewBox="0 0 18 21"><defs><style>.cls-1,.cls-2{fill:none;}.cls-1{stroke:#79878c;stroke-miterlimit:10;}</style></defs><title>Shopping Basket</title><g id="Layer_2" data-name="Layer 2"><g id="Artwork"><polygon class="cls-1" points="10.49 11.44 7.51 11.44 6.02 12.88 9 15.47 11.98 12.88 10.49 11.44"/><polygon class="cls-1" points="16.46 19.5 1.54 19.5 2.64 6.55 15.36 6.55 16.46 19.5"/><path class="cls-1" d="M5.91,8.52V4.59A3.09,3.09,0,0,1,9,1.5H9a3.09,3.09,0,0,1,3.09,3.09V8.52"/><polyline class="cls-1" points="2.62 6.4 3.47 5.01 9.28 5.01 14.53 5.01 15.38 6.4"/><polygon class="cls-1" points="10.49 11.44 7.51 11.44 6.02 12.88 9 15.47 11.98 12.88 10.49 11.44"/><rect class="cls-2" width="18" height="21"/></g></g></svg>