<svg xmlns="http://www.w3.org/2000/svg" viewBox="0 0 21 19"><defs><style>.cls-1,.cls-2,.cls-3{fill:none;}.cls-1,.cls-2{stroke:#79878c;}.cls-1{stroke-linejoin:bevel;}.cls-2{stroke-miterlimit:10;}</style></defs><title>Wishlist</title><g id="Layer_2" data-name="Layer 2"><g id="Artwork"><path class="cls-1" d="M20,5.7A4.75,4.75,0,0,0,15.25,1,5.12,5.12,0,0,0,10.5,4.12,5.37,5.37,0,0,0,5.75,1,4.74,4.74,0,0,0,1,5.58H1V5.7a4.81,4.81,0,0,0,.22,1.43c1.07,4,5.92,8.11,9.29,10.92,3.34-2.79,8.16-7.2,9.26-10.88a5,5,0,0,0,.16-.67.25.25,0,0,1,0-.08A4.91,4.91,0,0,0,20,5.75v0h0Z"/><line class="cls-2" x1="10.83" y1="15.27" x2="13.64" y2="12.47"/><line class="cls-2" x1="10.62" y1="13.22" x2="11.8" y2="12.01"/><rect class="cls-3" width="21" height="19"/></g></g></svg>